<svg width="292" height="82" viewBox="0 0 292 82" fill="none" xmlns="http://www.w3.org/2000/svg">
<path d="M21.6 63.32V47.12H60.72V31.64H21.6V16.88H64.32V0.199997H0.48V80H64.68V63.32H21.6ZM112.903 19.04C103.183 19.04 98.2631 23.72 95.8631 32.24V20H75.8231V80H96.4631V56C96.4631 43.88 100.663 39.08 110.623 39.08H117.943V19.04H112.903ZM163.294 19.04C153.574 19.04 148.654 23.72 146.254 32.24V20H126.214V80H146.854V56C146.854 43.88 151.054 39.08 161.014 39.08H168.334V19.04H163.294ZM206.655 81.92C232.095 81.92 241.095 66.08 241.095 50C241.095 33.92 232.095 18.08 206.655 18.08C181.215 18.08 172.335 33.92 172.335 50C172.335 66.2 181.215 81.92 206.655 81.92ZM192.975 50C192.975 38 196.815 34.16 206.655 34.16C216.495 34.16 220.335 38 220.335 50C220.335 62 216.495 65.84 206.655 65.84C196.815 65.84 192.975 62 192.975 50ZM286.809 19.04C277.089 19.04 272.169 23.72 269.769 32.24V20H249.729V80H270.369V56C270.369 43.88 274.569 39.08 284.529 39.08H291.849V19.04H286.809Z" fill="#505741"/>
</svg>
